Coordinates
version=1
nRows=17
nColumns=24
inDegrees=yes

Units are S.I. units (second, meters, Newtons, ...)
Angles are in degrees.

endheader
time	pelvis_tilt	pelvis_list	pelvis_rotation	pelvis_tx	pelvis_ty	pelvis_tz	hip_flexion_r	hip_adduction_r	hip_rotation_r	knee_angle_r	ankle_angle_r	subtalar_angle_r	mtp_angle_r	hip_flexion_l	hip_adduction_l	hip_rotation_l	knee_angle_l	ankle_angle_l	subtalar_angle_l	mtp_angle_l	lumbar_extension	lumbar_bending	lumbar_rotation
      1.18666667	     -0.79429732	      6.51609477	      0.91337549	      0.20795316	      0.99125395	      0.28593755	     21.45723366	     -7.48662263	     -0.34897351	    -72.04287288	      1.31665110	     -7.64824809	      2.39648592	     10.91304902	     12.00226022	      2.36872611	    -15.02345171	      3.76829709	    -10.04639386	      0.36742558	     -0.93862316	     -3.95736355	      1.81644049
      1.19083333	     -0.68876701	      6.43456988	      0.92489707	      0.21313136	      0.99224273	      0.28583497	     21.92690795	     -7.33438870	     -0.23148582	    -71.81032628	      1.87826223	     -8.07950778	      2.27376932	     10.25690765	     11.92679382	      2.55409264	    -14.64173680	      3.82511703	    -10.10442081	      0.32283958	     -1.07087033	     -3.86962558	      1.75522470
      1.19500000	     -0.64786919	      6.32836300	      0.94419764	      0.21827011	      0.99308845	      0.28573353	     22.45572077	     -7.15530858	     -0.12145723	    -71.52352091	      2.52542569	     -8.33032367	      2.22256584	      9.70880725	     11.82009646	      2.69322398	    -14.33251568	      3.90853166	    -10.10027512	      0.30129825	     -1.13349543	     -3.73038262	      1.72062418
      1.19916667	     -0.53867012	      6.25334287	      0.95292679	      0.22344090	      0.99402065	      0.28564734	     22.88782682	     -7.01347210	     -0.01325182	    -71.16639000	      3.10556021	     -8.73420680	      2.09884479	      9.05204306	     11.74839134	      2.88060518	    -13.95267138	      3.96773745	    -10.16728101	      0.24958694	     -1.26967053	     -3.65258662	      1.66478095
      1.20333333	     -0.44878550	      6.15396307	      0.97035194	      0.22859336	      0.99488983	      0.28556364	     23.31967045	     -6.84656607	      0.07783723	    -70.74264053	      3.70998640	     -9.05010291	      1.97291867	      8.43330519	     11.64827927	      3.05644219	    -13.60620161	      4.03598892	    -10.21608470	      0.19435714	     -1.38641222	     -3.53292314	      1.61752983
      1.20750000	     -0.40986012	      6.03151468	      0.99544818	      0.23370564	      0.99564766	      0.28549932	     23.78930255	     -6.65054666	      0.16373963	    -70.25248086	      4.31287981	     -9.29029653	      1.91268034	      7.89887347	     11.51968174	      3.20883278	    -13.31259083	      4.11554885	    -10.22979203	      0.16585911	     -1.44791890	     -3.39135142	      1.58716915
      1.21166667	     -0.33085949	      5.93025915	      1.01521032	      0.23885347	      0.99643925	      0.28543057	     24.19452588	     -6.48753204	      0.23518029	    -69.70440503	      4.89580782	     -9.59724640	      1.84585335	      7.30025197	     11.41306795	      3.36864867	    -12.97717200	      4.19345538	    -10.26775395	      0.13435059	     -1.54824539	     -3.25897727	      1.54683453
      1.21583333	     -0.24198898	      5.82102950	      1.03574800	      0.24398266	      0.99722005	      0.28539140	     24.56371420	     -6.30729206	      0.31006063	    -69.08161932	      5.43666300	     -9.92772735	      1.76404593	      6.69367422	     11.29678040	      3.55616751	    -12.64582610	      4.25995126	    -10.33493876	      0.09615287	     -1.66645473	     -3.15112803	      1.50168802
      1.22000000	     -0.16595485	      5.71664578	      1.06001949	      0.24909960	      0.99792049	      0.28533895	     24.93221083	     -6.14132128	      0.37118838	    -68.40889446	      5.94010363	    -10.25028969	      1.67291282	      6.10514040	     11.18660192	      3.74278791	    -12.31876519	      4.33049523	    -10.41364123	      0.05380313	     -1.76913664	     -3.03585192	      1.45413828
      1.22416667	     -0.09796333	      5.62553331	      1.08441716	      0.25420862	      0.99856729	      0.28529430	     25.29252727	     -5.99187966	      0.43104522	    -67.68309285	      6.42185572	    -10.57266104	      1.57013420	      5.52448375	     11.08889967	      3.93357574	    -11.98717497	      4.39597319	    -10.50454804	      0.00611902	     -1.86151833	     -2.93540755	      1.40505178
      1.22833333	      0.01325900	      5.53605120	      1.09691234	      0.25933677	      0.99924327	      0.28525158	     25.58443692	     -5.84652691	      0.48273116	    -66.89563812	      6.80266554	    -10.96490092	      1.36079979	      4.87207981	     10.99425330	      4.16120766	    -11.60496706	      4.43825912	    -10.65946438	     -0.08823686	     -2.01619316	     -2.82702676	      1.33080435
      1.23250000	      0.03763136	      5.42544362	      1.13998312	      0.26441731	      0.99974471	      0.28520637	     25.94682105	     -5.68460405	      0.51066996	    -66.05094779	      7.26262317	    -11.19653445	      1.26482401	      4.36806946	     10.87170592	      4.32878577	    -11.32957291	      4.52605508	    -10.71481724	     -0.13132237	     -2.05633999	     -2.70356539	      1.30201464
      1.23666667	      0.12391027	      5.34893108	      1.16620115	      0.26953763	      1.00031432	      0.28514020	     26.22182209	     -5.56658421	      0.53630333	    -65.14794268	      7.55210437	    -11.57447272	      0.67920908	      3.72712562	     10.79569681	      4.62657774	    -10.91095125	      4.46692410	    -11.03005569	     -0.39227193	     -2.16834629	     -2.61005911	      1.20771754
      1.24083333	      0.16519955	      5.24568710	      1.20653622	      0.27460354	      1.00073761	      0.28511999	     26.52721151	     -5.41360495	      0.55516221	    -64.20450264	      7.97547173	    -11.81478468	      0.58611000	      3.21623429	     10.67446601	      4.76739382	    -10.65950076	      4.64103816	    -11.00123289	     -0.42929687	     -2.24721450	     -2.50081830	      1.18822959
      1.24500000	      0.27578928	      5.17383162	      1.22322254	      0.27970804	      1.00122768	      0.28510850	     26.73710278	     -5.29636401	      0.57667158	    -63.20341287	      8.23164023	    -12.21739004	      0.39452628	      2.58132352	     10.58623608	      4.94135689	    -10.30369628	      4.72511422	    -11.08274132	     -0.50714058	     -2.39708793	     -2.42345678	      1.12034390
      1.24916667	      0.32041624	      5.09596438	      1.25836206	      0.28476984	      1.00156595	      0.28508373	     27.00135587	     -5.17616300	      0.58854247	    -62.15846827	      8.48760542	    -12.55340106	      0.16583565	      2.03480504	     10.49490866	      5.14661518	     -9.98047820	      4.79673266	    -11.20541385	     -0.60004039	     -2.47760045	     -2.34125114	      1.05838964
      1.25333333	      0.37430174	      5.01894236	      1.29743506	      0.28983366	      1.00188464	      0.28506412	     27.23004272	     -5.06393891	      0.58026660	    -61.05749486	      8.71066959	    -12.85204338	     -0.05422011	      1.48109663	     10.40056723	      5.33389919	     -9.66184068	      4.87621729	    -11.30962659	     -0.68754648	     -2.56242093	     -2.26027731	      1.00238184
